<svg xmlns="http://www.w3.org/2000/svg" viewBox="0 0 120 131">
<!-- SVG created with Arrow, by QuiverAI (https://quiver.ai) -->
  <style type="text/css">.cls-0 {fill:#F9F9F9;}
.cls-1 {fill:#434CE7;}
.cls-2 {fill:#F9F7F9;}
.cls-3 {fill:#FFFFFF;}</style>
  <rect class="cls-0" width="120" height="131"/>
  <path class="cls-1" d="m107.2 100c2.6-2.7 4.9-4.3 7.2-4.3 2.1 0 3.9 1.7 3.9 4.9 0 6.5-7.7 23.8-35 28.1-3.9 0.6-8.1 1-13 1.1-8.5 0-19-1.3-30.3-6.2-1.9-0.9-3.5-1.2-6-0.6-5 1.5-11.8 3.7-21.6 3.9-4.2 0.1-5.2-3.1-3.6-5.9 3.2-5.1 9.4-11.5 3.1-18.1-5.9-8-8.9-16.9-9.9-25.4-3.5-28.6 16.4-50.6 38.9-56.7 4.1-1.1 8.3-2 13.1-2 8.9 0 17.9 1.6 26.4 6.9 3.3 2 4.7 3.4 7.2 3.4 3.3 0.2 6.2-1.9 8.9-5.7 2.3-3 5.2-6 9.9-6.1 5.5 0 9.9 4.3 9.9 10.5 0 5.1-4 10.1-10.2 10.1-4.8 0-9-2.3-13-2.7-2.5 0-3.8 3-1 5.4 8.6 7.6 19.6 20.1 19.7 38.3-0.1 7.1-1.5 13.5-4.4 21l-0.2 0.1z"/>
  <path class="cls-1" d="m92.8 18.3c-1.7-6.4-2.2-15.3 3.9-16.7 2.9-0.8 7.5 0.5 7.8 4.4s-2.4 5.7-5.2 7c-2.2 1-4.2 2.6-6.5 5.3z"/>
  <path class="cls-2" d="m29.6 56c-5.3 0-10.6 5.7-10.6 13.9 0 7.8 4.3 14.3 10.6 14.3 5.4 0 10.3-5.3 10.5-13.7 0-7.6-4.5-14.5-10.5-14.5z"/>
  <path class="cls-2" d="m64.5 56.1c-4.4 0-10.1 5-10.1 13.8 0 7.4 4.2 14.2 10.1 14.3 5.3 0.1 10.6-5.2 10.6-14.3 0-7.8-4.9-13.8-10.6-13.8z"/>
  <path class="cls-2" d="m50.1 87.4c-1.2 0.6-2 0.9-2.7 0.9s-1.8-0.3-2.8-0.8c-1.5-1-3 0.5-2.6 1.8 0.4 1.4 2.6 3.7 5.5 3.7s5.1-1.9 5.2-3.5c0.1-1.5-1.3-2.8-2.6-2.1z"/>
  <path class="cls-1" d="m32.8 64.6c-2.4 0-4.8 2.3-4.8 5.1v2.6c0.1 2.6 1.9 5.2 4.8 5.2 2.7 0 4.6-2.4 4.7-5v-2.9c-0.1-2.6-2-5-4.7-5z"/>
  <path class="cls-1" d="m68 64.6c-2.4 0-5 2.4-4.9 5.4v2.2c0.1 2.8 2 5.2 4.8 5.3 2.7 0.1 4.7-2.5 4.8-4.9v-3c0-2.6-2.1-5.1-4.7-5z"/>
  <path class="cls-2" d="m99.9 76.1-28.3 14.1c-1.4 13.4-4 21.9-6.9 27.6 0.7 0.6 1.9 1.4 2.6 1.8l11.9-15.1c-0.5-0.7-0.7-1.5-0.7-2.3 0-2 1.9-4 4.1-4 3-0.1 4.5 2 4.5 4.2s-2.5 4.3-5.7 3.7l-11.8 15.2c0.5 0.7 1.5 1.3 2.6 2 5.5-4.3 10.5-6.8 25.2-13.6l0.7-0.1 5.1-31.6c0.2-1-1.5-2.6-3.3-1.9z"/>
  <path class="cls-3" d="m68.7 120.2"/>
</svg>