<svg xmlns="http://www.w3.org/2000/svg" width="256" height="256" fill="none" viewBox="0 0 256 256">
<!-- SVG created with Arrow, by QuiverAI (https://quiver.ai) -->
  <path d="m11.11 63.68c0-31.41 21.76-58 54.37-58h123.6c31.16 0 55.17 25.21 55.17 57.13l-0.24 124.3c-0.05 31.58-23.67 57.21-55.07 57.21h-124.6c-31.07 0-53.18-26.1-53.18-57.5v-123.1z" fill="url(#paint0_linear_117_2192)"/>
  <path d="m11.48 63.68c0-31.17 21.53-57.63 54-57.63h123.6c30.95 0 54.8 25.04 54.8 56.76l-0.24 124.3c-0.05 31.34-23.49 56.85-54.7 56.85h-124.6c-30.85 0-52.81-25.87-52.81-57.13v-123.1z" stroke="#CDCDCD" stroke-width=".7393"/>
  <path d="m223.9 77.95c-0.3-14.79-11.88-39.81-33.77-39.81-12.74 0-21.43 9.85-24.53 19.48-7.43 24.44-19.84 34.62-49.04 37.02-18.62 1.54-30.62 3.67-39.79 14.52l0.14 0.56c8.61-9.36 18.46-11.89 37.18-13.8 24.16-1.96 42.7-8.74 51.9-35.32 4.8-13.95 13.33-21.95 24.31-22.11 18.47-0.3 32.78 19.4 33.09 39.28 0.32 16.4-9.57 28.16-23.49 35.21-11.2 5.9-30.83 12.18-31.01 31.3l0.28 41.43c8.9 1.52 26.77 1.41 31.01 0.21 8.4-2.48 18.66-10.1 18.4-17.59-0.47-14.86-18.56-19.5-21.17-33.7-1.51-8.22 3.33-14.16 10.25-20.64 8.92-8.57 16.55-19.28 16.24-36.04z" fill="url(#paint1_linear_117_2192)" stroke="#7A7A7A" stroke-miterlimit="10" stroke-width=".7393"/>
  <path d="m23.28 201.3h186.8c-0.98 6.77-6.37 8.65-9.69 8.65h-167.9c-6.39 0-8.58-5.82-10.03-8.63l0.87-0.02z" fill="#4A4D53" stroke="#202A30" stroke-miterlimit="10" stroke-width=".4929"/>
  <path d="m101.2 203.5h33.29c-0.75 2.92-3.41 3.37-4.88 3.37h-24.07c-3.17 0-4.21-1.87-4.77-3.34l0.43-0.03z" fill="#fff" stroke="#202A30" stroke-miterlimit="10" stroke-width=".4929"/>
  <path d="m85.86 83.19h-44.36c-6.51 0-9.79 5.72-10.05 8.25v104.7c0 3.61 3.54 5.6 5.19 6.09" stroke="#202A30" stroke-linecap="round" stroke-miterlimit="10" stroke-width="1.631"/>
  <path d="m145.9 38.62 1.3 6.37c0.87 3.59 2.94 4.77 6.02 5.03l3.28 0.26v0.31l-3.28 0.49c-3.37 0.55-5.76 2.63-6.65 6.81l-0.67 3.08h-0.32l-0.87-5.05c-0.64-3.24-2.72-5.14-6.48-5.7l-3.55-0.55v-0.31l3.55-0.64c3.66-0.71 5.64-2.71 6.64-6.49l0.71-3.61h0.32z" fill="#2D343D" stroke="#000" stroke-miterlimit="10" stroke-width=".2464"/>
  <path d="m66.75 119.9h0.35v54.29h-0.35" stroke="#202A30" stroke-dasharray="3.7 4.93" stroke-linecap="round" stroke-linejoin="round" stroke-width=".9858"/>
  <path d="m169.2 123.3v42.81" stroke="#202A30" stroke-dasharray="3.7 4.93" stroke-linecap="round" stroke-linejoin="round" stroke-width=".9858"/>
  <path d="m75.77 118.2 81.24-0.44" stroke="#202A30" stroke-dasharray="3.21 4.93" stroke-linecap="round" stroke-linejoin="round" stroke-width="1.232"/>
  <path d="m75.28 174.2h81.73" stroke="#202A30" stroke-dasharray="3.21 4.93" stroke-linecap="round" stroke-linejoin="round" stroke-width="1.232"/>
  <path d="m66.71 120.6c3.01 0.8 3.98-1.8 3.93-2.98 0.1-1.95-1.15-2.92-3.13-2.97-2.52-0.05-3.61 1.67-3.63 3.19-0.03 1.69 0.85 2.48 2.83 2.76z" fill="#2D343D" stroke="#202A30" stroke-miterlimit="10" stroke-width=".9858"/>
  <path d="m168.8 120.6c2.8 0 3-2.39 3-3.06 0-1.71-1.12-2.82-2.87-2.9-2.13-0.11-2.85 1.41-2.95 2.97-0.11 1.57 0.77 2.99 2.82 2.99z" fill="#2D343D" stroke="#202A30" stroke-miterlimit="10" stroke-width=".9858"/>
  <path d="m66.97 176.8c3.16 0.72 3.85-2.01 3.77-3.06-0.05-1.53-1.37-2.69-3.1-2.69-1.93 0-3.35 1.48-3.35 3.25 0 1.41 1.2 2.4 2.68 2.5z" fill="#2D343D" stroke="#202A30" stroke-miterlimit="10" stroke-width=".9858"/>
  <path d="m164.1 167.4 15.78 8.12-5.55 3.61 5.29 6.05-2.79 1.8-4.98-6.32-3.31 4.18-4.44-17.44z" fill="#202A30" stroke="#000" stroke-miterlimit="10" stroke-width=".4929"/>
  <path d="m172.9 65.71 11.29 28.28c1.46 3.69 2.26 4.62 4.87 4.88v0.44h-13.6v-0.44c3.32-0.26 4.27-1.44 3.22-4.27l-2.83-6.97h-10.18l-2.13 5.71c-1.56 4.32-0.75 5.15 2.58 5.51v0.44h-10.39v-0.44c2.66-0.26 3.72-1.67 5.35-5.74l11.4-27.4h0.42zm-1.82 6.71-4.82 13.36h9.12l-4.3-13.36z" fill="#202A30" stroke="#fff" stroke-miterlimit="10" stroke-width=".2464"/>
  <path d="m199 73.66v19.55c0 4.66 0.73 5.4 3.86 5.66v0.44h-13.16v-0.44c3.13-0.26 3.87-1 3.87-5.66v-19.55c0-4.67-0.74-5.41-3.87-5.66v-0.6h13.16v0.6c-3.13 0.25-3.86 0.99-3.86 5.66z" fill="#202A30" stroke="#fff" stroke-miterlimit="10" stroke-width=".2464"/>
  <path d="m76.21 147.6h1.2c0.11 1.25 0.92 1.78 2.27 1.78 1.18 0 1.81-0.65 1.81-1.62 0-2.11-5.1-1.1-5.1-4.12 0-1.41 1.27-2.22 2.95-2.22 1.64 0 2.86 1.05 2.94 2.43h-1.17c-0.1-1.05-0.99-1.52-1.82-1.52-1.08 0-1.77 0.54-1.77 1.37 0 1.97 5.1 0.9 5.1 3.96 0 1.44-1.18 2.64-3 2.64-2 0-3.28-1.1-3.41-2.7zm10.08-1.75c0-3 1.72-4.43 3.7-4.43 2.23 0 3.82 1.89 3.68 4.7h-6.26c0.05 2.24 1.33 3.21 2.58 3.21 1.33 0 2.19-0.76 2.62-1.93l1.01 0.2c-0.68 1.65-1.98 2.7-3.71 2.7-2.13 0-3.62-1.71-3.62-4.45zm6.32-0.64c-0.2-1.75-1.26-2.85-2.62-2.85-1.27 0-2.35 1.05-2.53 2.85h5.15zm7.4 3.08v-10.28h1.1v9.96c0 0.78 0.28 0.99 1.11 0.88v1.13c-1.67 0.28-2.21-0.32-2.21-1.69zm7.1-2.44c0-3 1.72-4.43 3.7-4.43 2.23 0 3.82 1.89 3.68 4.7h-6.26c0.05 2.24 1.33 3.21 2.58 3.21 1.33 0 2.19-0.76 2.62-1.93l1.01 0.2c-0.68 1.65-1.98 2.7-3.71 2.7-2.13 0-3.62-1.71-3.62-4.45zm6.32-0.64c-0.2-1.75-1.26-2.85-2.62-2.85-1.27 0-2.35 1.05-2.53 2.85h5.15zm5.31 0.62c0-2.68 1.59-4.41 3.78-4.41 2.03 0 3.35 1.4 3.55 3.34h-1.15c-0.26-1.53-1.2-2.35-2.4-2.35-1.6 0-2.65 1.36-2.65 3.42 0 2.03 1.05 3.47 2.6 3.47 1.3 0 2.18-1.08 2.49-2.49l1.1 0.18c-0.43 1.93-1.73 3.31-3.59 3.31-2.21 0-3.73-1.78-3.73-4.47zm13.55 2.39v-5.73h-1.38v-0.94h1.43l0.13-2.6h0.92v2.6h1.92v0.94h-1.92v5.56c0 0.8 0.43 0.93 1.27 0.8l0.65-0.13v1.05l-0.78 0.16c-1.55 0.3-2.24-0.32-2.24-1.71zm8.07-2.37c0-3 1.72-4.43 3.7-4.43 2.23 0 3.82 1.89 3.69 4.7h-6.26c0.05 2.24 1.32 3.21 2.57 3.21 1.34 0 2.2-0.76 2.63-1.93l1.01 0.2c-0.69 1.65-1.99 2.7-3.71 2.7-2.14 0-3.63-1.71-3.63-4.45zm6.33-0.64c-0.2-1.75-1.26-2.85-2.63-2.85-1.27 0-2.34 1.05-2.52 2.85h5.15zm4.96 0.64c0-2.95 1.61-4.43 3.53-4.43 1.25 0 2.33 0.74 2.88 2.14v-5.55h1.13v12.09h-0.88l-0.15-1.97c-0.6 1.41-1.7 2.17-2.9 2.17-2 0-3.61-1.55-3.61-4.45zm3.71 3.38c1.52 0 2.62-1.47 2.62-3.45 0-1.96-1.15-3.37-2.62-3.37-1.54 0-2.57 1.33-2.57 3.34 0 2.06 1.05 3.48 2.57 3.48z" fill="#000"/>
  <defs>
    <linearGradient id="paint0_linear_117_2192" x1="127.9" x2="127.9" y1="5.683" y2="244.3" gradientUnits="userSpaceOnUse">
      <stop stop-color="#FEFFFE" offset="0"/>
      <stop stop-color="#F0EBEA" offset="1"/>
    </linearGradient>
    <linearGradient id="paint1_linear_117_2192" x1="183.8" x2="208" y1="43.23" y2="181.9" gradientUnits="userSpaceOnUse">
      <stop stop-color="#C6C5C5" offset="0"/>
      <stop stop-color="#FEFFFE" offset=".6146"/>
      <stop stop-color="#D5D3D2" offset="1"/>
    </linearGradient>
  </defs>
</svg>
